# xmcd
#
# Track frame offsets:
#	150
#	14367
#	37910
#	48208
#	73289
#	87647
#	104651
#	120766
#	134579
#	151890
#	177090
#	193760
#	207474
#	224053
#
# Disc length: 3245 seconds
#
# Revision: 2
# Processed by: cddbd v1.5.2PL0 Copyright (c) Steve Scherf et al.
# Submitted via: EasyCDDAExtractor 12.0.0.1
#
DISCID=cf0cab0e
DTITLE=Andrew Lloyd Webber - The Magical Music [CD2)
DYEAR=2002
DGENRE=Musical
TTITLE0=With One Look - Sunset Boulevard
TTITLE1=Music Of The Night - The Phantom Of The Opera
TTITLE2=Any Dream Will Do - Joseph And The Amazing Technicolor Dreamcoat
TTITLE3=Don't Cry For Me Argentina - Evita
TTITLE4=Mr Mistofeles - Cats
TTITLE5=Memory - Cats
TTITLE6=Close Every Door - Joseph And The Amazing Technicolor Dreamcoat
TTITLE7=Buenos Aires - Evita
TTITLE8=Starlight Express - Starlight Express
TTITLE9=As If We Never Said Goodbye - Sunset Boulevard
TTITLE10=Whistle Down The Wind - Whistle Down The Wind
TTITLE11=Sunset Boulevard - Sunset Boulevard
TTITLE12=Tell Me On A Sunday - Song And Dance
TTITLE13=Jesus Christ Superstar - Jesus Christ Superstar
EXTD=YEAR: 2002
EXTT0=
EXTT1=
EXTT2=
EXTT3=
EXTT4=
EXTT5=
EXTT6=
EXTT7=
EXTT8=
EXTT9=
EXTT10=
EXTT11=
EXTT12=
EXTT13=
PLAYORDER=
